<svg width="46" height="12" viewBox="0 0 46 12" fill="none" xmlns="http://www.w3.org/2000/svg">
<path d="M2.71287 11.4604H0.260986V2.41395C0.260986 2.41395 0.260984 0.69082 2.05904 0.142551C3.69363 -0.366557 4.75612 0.651653 4.75612 0.651653L12.8065 8.99319C13.2151 9.22816 13.3786 8.99319 13.3786 8.75821V0.142551H15.8713V9.11067C15.8713 9.85475 15.2175 10.8338 14.2368 11.1863C13.256 11.5387 12.2344 11.5387 11.0084 10.5205L3.44844 2.68809C3.24412 2.49228 2.71287 2.45311 2.71287 2.84473V11.4604Z" fill="white"/>
<path d="M17.4241 0.14268H19.9168V8.24923C19.9168 9.1108 20.6933 9.1108 21.388 9.1108H32.3397C32.7892 9.1108 33.3205 8.60169 33.3205 8.05342C33.3205 7.50515 32.7892 6.95688 32.2989 6.95688H25.1884C23.9624 6.99605 21.4288 5.89951 21.4288 3.62811C21.4288 0.847596 23.8398 0.18184 24.9432 0.103516H45.1304V2.49241H40.104V11.4605H37.6522V2.49241H25.311C24.1259 2.41408 23.3086 4.33302 25.2293 4.60716H32.8301C33.9743 4.60716 35.8541 5.54705 35.895 7.89677C35.895 10.2857 34.4238 11.4214 32.8301 11.4214H21.5106C19.6716 11.4214 18.9769 10.9906 18.3231 10.4423C17.7101 9.85488 17.6284 9.54159 17.4241 8.36672V0.14268Z" fill="white"/>
</svg>
