<svg width="20" height="20" viewBox="0 0 20 20" fill="none" xmlns="http://www.w3.org/2000/svg">
<path d="M10.3242 1.6665C11.2574 1.6665 12.1523 2.0372 12.8122 2.69706C13.472 3.35691 13.8427 4.25186 13.8427 5.18503C13.8427 6.50448 13.139 7.648 12.0835 8.26374V10.4628H8.56493V8.26374C7.50937 7.648 6.80566 6.50448 6.80566 5.18503C6.80566 4.25186 7.17636 3.35691 7.83622 2.69706C8.49607 2.0372 9.39102 1.6665 10.3242 1.6665Z" stroke="white" stroke-width="2.33"/>
<path d="M4.16675 17.5002H16.4816V15.7409C16.4816 15.0411 16.2036 14.3699 15.7087 13.875C15.2138 13.3801 14.5426 13.1021 13.8427 13.1021H6.80564C6.10576 13.1021 5.43455 13.3801 4.93966 13.875C4.44477 14.3699 4.16675 15.0411 4.16675 15.7409V17.5002Z" stroke="white" stroke-width="2.33"/>
</svg>
