<svg width="23" height="23" viewBox="0 0 23 23" fill="none" xmlns="http://www.w3.org/2000/svg">
<path d="M14.3749 11.5L6.3508 19.5241C5.96955 19.9054 5.45247 20.1196 4.9133 20.1196C4.37414 20.1196 3.85705 19.9054 3.4758 19.5241C3.09455 19.1429 2.88037 18.6258 2.88037 18.0866C2.88037 17.5475 3.09455 17.0304 3.4758 16.6491L11.4999 8.625" stroke="white" stroke-width="1.66667" stroke-linecap="round" stroke-linejoin="round"/>
<path d="M17.25 14.3753L21.0833 10.542" stroke="white" stroke-width="1.66667" stroke-linecap="round" stroke-linejoin="round"/>
<path d="M20.6042 11.0211L18.7699 9.18683C18.4104 8.82747 18.2084 8.34004 18.2083 7.83175V6.70858L16.0425 4.54275C14.9735 3.47438 13.5269 2.86984 12.0156 2.85991L8.625 2.83691L9.50667 3.62275C10.1329 4.178 10.6343 4.85967 10.9779 5.62283C11.3215 6.38599 11.4994 7.21331 11.5 8.05025V9.58358L13.4167 11.5002H14.5398C15.0481 11.5004 15.5356 11.7024 15.8949 12.0618L17.7292 13.8961" stroke="white" stroke-width="1.66667" stroke-linecap="round" stroke-linejoin="round"/>
</svg>
