<svg width="20" height="20" viewBox="0 0 20 20" fill="none" xmlns="http://www.w3.org/2000/svg">
<path d="M12.4999 10L5.52241 16.9775C5.19088 17.309 4.74125 17.4953 4.27241 17.4953C3.80356 17.4953 3.35393 17.309 3.02241 16.9775C2.69089 16.646 2.50464 16.1963 2.50464 15.7275C2.50464 15.2587 2.69089 14.809 3.02241 14.4775L9.9999 7.5" stroke="white" stroke-opacity="0.6" stroke-width="1.66667" stroke-linecap="round" stroke-linejoin="round"/>
<path d="M15 12.5L18.3333 9.16667" stroke="white" stroke-opacity="0.6" stroke-width="1.66667" stroke-linecap="round" stroke-linejoin="round"/>
<path d="M17.9167 9.58333L16.3217 7.98833C16.0091 7.67585 15.8334 7.25199 15.8333 6.81V5.83333L13.95 3.95C13.0204 3.02099 11.7625 2.4953 10.4483 2.48667L7.5 2.46667L8.26667 3.15C8.81121 3.63283 9.24724 4.22559 9.54602 4.8892C9.84479 5.55282 9.99952 6.27223 10 7V8.33333L11.6667 10H12.6433C13.0853 10.0001 13.5092 10.1758 13.8217 10.4883L15.4167 12.0833" stroke="white" stroke-opacity="0.6" stroke-width="1.66667" stroke-linecap="round" stroke-linejoin="round"/>
</svg>
