<svg width="21" height="20" viewBox="0 0 21 20" fill="none" xmlns="http://www.w3.org/2000/svg">
<g clip-path="url(#clip0_19_2241)">
<path d="M11.3242 1.66667C12.2574 1.66667 13.1523 2.03737 13.8122 2.69722C14.472 3.35707 14.8427 4.25202 14.8427 5.18519C14.8427 6.50464 14.139 7.64816 13.0835 8.2639V10.463H9.56493V8.2639C8.50937 7.64816 7.80566 6.50464 7.80566 5.18519C7.80566 4.25202 8.17636 3.35707 8.83622 2.69722C9.49607 2.03737 10.391 1.66667 11.3242 1.66667Z" stroke="white" stroke-opacity="0.6" stroke-width="2.33"/>
<path d="M5.16675 17.5002H17.4816V15.7409C17.4816 15.041 17.2036 14.3698 16.7087 13.8749C16.2138 13.38 15.5426 13.102 14.8427 13.102H7.80564C7.10576 13.102 6.43455 13.38 5.93966 13.8749C5.44477 14.3698 5.16675 15.041 5.16675 15.7409V17.5002Z" stroke="white" stroke-opacity="0.6" stroke-width="2.33"/>
</g>
<defs>
<clipPath id="clip0_19_2241">
<rect width="20" height="20" fill="white" transform="translate(0.501709)"/>
</clipPath>
</defs>
</svg>
