<svg width="16" height="16" viewBox="0 0 16 16" fill="none" xmlns="http://www.w3.org/2000/svg">
<path d="M8 5.33333C11.3137 5.33333 14 4.4379 14 3.33333C14 2.22876 11.3137 1.33333 8 1.33333C4.68629 1.33333 2 2.22876 2 3.33333C2 4.4379 4.68629 5.33333 8 5.33333Z" stroke="#898989" stroke-width="2" stroke-linecap="round" stroke-linejoin="round"/>
<path d="M2 3.33333V12.6667C2 13.1971 2.63214 13.7058 3.75736 14.0809C4.88258 14.456 6.4087 14.6667 8 14.6667C9.5913 14.6667 11.1174 14.456 12.2426 14.0809C13.3679 13.7058 14 13.1971 14 12.6667V3.33333" stroke="#898989" stroke-width="2" stroke-linecap="round" stroke-linejoin="round"/>
<path d="M2 8C2 8.88405 2.63214 9.7319 3.75736 10.357C4.88258 10.9821 6.4087 11.3333 8 11.3333C9.5913 11.3333 11.1174 10.9821 12.2426 10.357C13.3679 9.7319 14 8.88405 14 8" stroke="#898989" stroke-width="2" stroke-linecap="round" stroke-linejoin="round"/>
</svg>
